<mxfile host="Electron" modified="2024-07-20T12:45:02.513Z" agent="Mozilla/5.0 (Macintosh; Intel Mac OS X 10_15_7) AppleWebKit/537.36 (KHTML, like Gecko) draw.io/24.6.4 Chrome/124.0.6367.207 Electron/30.0.6 Safari/537.36" etag="Adib4DAIKR0sd98UkO_e" version="24.6.4" type="device">
  <diagram name="PÃ¡gina-1" id="3FJgmULEvDkz62puAenG">
    <mxGraphModel dx="1877" dy="645" grid="1" gridSize="10" guides="1" tooltips="1" connect="1" arrows="1" fold="1" page="1" pageScale="1" pageWidth="827" pageHeight="1169" math="0" shadow="0">
      <root>
        <mxCell id="0" />
        <mxCell id="1" parent="0" />
        <mxCell id="fIfjESfUqvcu4jH1xxQw-36" value="" style="rounded=0;whiteSpace=wrap;html=1;fillColor=none;dashed=1;strokeWidth=4;strokeColor=#ffa200;" vertex="1" parent="1">
          <mxGeometry x="-490" y="2840" width="760" height="550" as="geometry" />
        </mxCell>
        <mxCell id="e8C-CaGicP8ONmUUrE0p-52" value="" style="rounded=0;whiteSpace=wrap;html=1;fillColor=none;dashed=1;strokeWidth=4;strokeColor=#ffa200;" parent="1" vertex="1">
          <mxGeometry x="-450" y="2380" width="530" height="400" as="geometry" />
        </mxCell>
        <mxCell id="e8C-CaGicP8ONmUUrE0p-38" value="" style="rounded=0;whiteSpace=wrap;html=1;fillColor=none;dashed=1;strokeWidth=4;strokeColor=#ffa200;" parent="1" vertex="1">
          <mxGeometry x="-598" y="1696" width="598" height="634" as="geometry" />
        </mxCell>
        <mxCell id="2Zm2wRLCPf6YTY4AgQdH-27" value="" style="rounded=0;whiteSpace=wrap;html=1;fillColor=none;dashed=1;strokeWidth=4;strokeColor=#ffa200;" parent="1" vertex="1">
          <mxGeometry x="-50" y="190" width="990" height="810" as="geometry" />
        </mxCell>
        <mxCell id="2Zm2wRLCPf6YTY4AgQdH-2" value="&lt;span style=&quot;color: rgb(0, 0, 0);&quot;&gt;AWS Cloudfront&lt;/span&gt;&lt;br style=&quot;color: rgb(0, 0, 0);&quot;&gt;&lt;span style=&quot;color: rgb(0, 0, 0);&quot;&gt;(CDN)&lt;/span&gt;" style="sketch=0;points=[[0,0,0],[0.25,0,0],[0.5,0,0],[0.75,0,0],[1,0,0],[0,1,0],[0.25,1,0],[0.5,1,0],[0.75,1,0],[1,1,0],[0,0.25,0],[0,0.5,0],[0,0.75,0],[1,0.25,0],[1,0.5,0],[1,0.75,0]];outlineConnect=0;fontColor=#232F3E;fillColor=#8C4FFF;strokeColor=#ffffff;dashed=0;verticalLabelPosition=bottom;verticalAlign=top;align=center;html=1;fontSize=12;fontStyle=0;aspect=fixed;shape=mxgraph.aws4.resourceIcon;resIcon=mxgraph.aws4.cloudfront;" parent="1" vertex="1">
          <mxGeometry y="520" width="78" height="78" as="geometry" />
        </mxCell>
        <mxCell id="2Zm2wRLCPf6YTY4AgQdH-3" value="AWS S3&lt;br&gt;(Static Content)&lt;br&gt;WEB App" style="sketch=0;points=[[0,0,0],[0.25,0,0],[0.5,0,0],[0.75,0,0],[1,0,0],[0,1,0],[0.25,1,0],[0.5,1,0],[0.75,1,0],[1,1,0],[0,0.25,0],[0,0.5,0],[0,0.75,0],[1,0.25,0],[1,0.5,0],[1,0.75,0]];outlineConnect=0;fontColor=#232F3E;fillColor=#7AA116;strokeColor=#ffffff;dashed=0;verticalLabelPosition=bottom;verticalAlign=top;align=center;html=1;fontSize=12;fontStyle=0;aspect=fixed;shape=mxgraph.aws4.resourceIcon;resIcon=mxgraph.aws4.s3;" parent="1" vertex="1">
          <mxGeometry x="280" y="520" width="78" height="78" as="geometry" />
        </mxCell>
        <mxCell id="2Zm2wRLCPf6YTY4AgQdH-14" style="edgeStyle=orthogonalEdgeStyle;rounded=0;orthogonalLoop=1;jettySize=auto;html=1;" parent="1" source="2Zm2wRLCPf6YTY4AgQdH-4" target="2Zm2wRLCPf6YTY4AgQdH-6" edge="1">
          <mxGeometry relative="1" as="geometry" />
        </mxCell>
        <mxCell id="2Zm2wRLCPf6YTY4AgQdH-15" value="Trigger" style="edgeLabel;html=1;align=center;verticalAlign=middle;resizable=0;points=[];" parent="2Zm2wRLCPf6YTY4AgQdH-14" vertex="1" connectable="0">
          <mxGeometry x="-0.1569" y="-1" relative="1" as="geometry">
            <mxPoint y="-10" as="offset" />
          </mxGeometry>
        </mxCell>
        <mxCell id="2Zm2wRLCPf6YTY4AgQdH-4" value="AWS Api Gateway&lt;br&gt;(Api Gateway)" style="sketch=0;points=[[0,0,0],[0.25,0,0],[0.5,0,0],[0.75,0,0],[1,0,0],[0,1,0],[0.25,1,0],[0.5,1,0],[0.75,1,0],[1,1,0],[0,0.25,0],[0,0.5,0],[0,0.75,0],[1,0.25,0],[1,0.5,0],[1,0.75,0]];outlineConnect=0;fontColor=#232F3E;fillColor=#E7157B;strokeColor=#ffffff;dashed=0;verticalLabelPosition=bottom;verticalAlign=top;align=center;html=1;fontSize=12;fontStyle=0;aspect=fixed;shape=mxgraph.aws4.resourceIcon;resIcon=mxgraph.aws4.api_gateway;" parent="1" vertex="1">
          <mxGeometry x="440" y="520" width="78" height="78" as="geometry" />
        </mxCell>
        <mxCell id="2Zm2wRLCPf6YTY4AgQdH-5" value="AWS Cognito&lt;br&gt;(Identity Provider)" style="sketch=0;points=[[0,0,0],[0.25,0,0],[0.5,0,0],[0.75,0,0],[1,0,0],[0,1,0],[0.25,1,0],[0.5,1,0],[0.75,1,0],[1,1,0],[0,0.25,0],[0,0.5,0],[0,0.75,0],[1,0.25,0],[1,0.5,0],[1,0.75,0]];outlineConnect=0;fontColor=#232F3E;fillColor=#DD344C;strokeColor=#ffffff;dashed=0;verticalLabelPosition=bottom;verticalAlign=top;align=center;html=1;fontSize=12;fontStyle=0;aspect=fixed;shape=mxgraph.aws4.resourceIcon;resIcon=mxgraph.aws4.cognito;" parent="1" vertex="1">
          <mxGeometry x="358" y="270" width="78" height="78" as="geometry" />
        </mxCell>
        <mxCell id="2Zm2wRLCPf6YTY4AgQdH-20" style="edgeStyle=orthogonalEdgeStyle;rounded=0;orthogonalLoop=1;jettySize=auto;html=1;" parent="1" source="2Zm2wRLCPf6YTY4AgQdH-6" target="2Zm2wRLCPf6YTY4AgQdH-7" edge="1">
          <mxGeometry relative="1" as="geometry" />
        </mxCell>
        <mxCell id="2Zm2wRLCPf6YTY4AgQdH-30" style="edgeStyle=orthogonalEdgeStyle;rounded=0;orthogonalLoop=1;jettySize=auto;html=1;" parent="1" source="2Zm2wRLCPf6YTY4AgQdH-6" target="2Zm2wRLCPf6YTY4AgQdH-29" edge="1">
          <mxGeometry relative="1" as="geometry">
            <Array as="points">
              <mxPoint x="659" y="250" />
            </Array>
          </mxGeometry>
        </mxCell>
        <mxCell id="2Zm2wRLCPf6YTY4AgQdH-51" value="HTTP" style="edgeLabel;html=1;align=center;verticalAlign=middle;resizable=0;points=[];" parent="2Zm2wRLCPf6YTY4AgQdH-30" vertex="1" connectable="0">
          <mxGeometry x="0.2188" y="2" relative="1" as="geometry">
            <mxPoint y="-8" as="offset" />
          </mxGeometry>
        </mxCell>
        <mxCell id="2Zm2wRLCPf6YTY4AgQdH-7" value="AWS DynamoDB&lt;div&gt;(NoSQL Database)&lt;/div&gt;" style="sketch=0;points=[[0,0,0],[0.25,0,0],[0.5,0,0],[0.75,0,0],[1,0,0],[0,1,0],[0.25,1,0],[0.5,1,0],[0.75,1,0],[1,1,0],[0,0.25,0],[0,0.5,0],[0,0.75,0],[1,0.25,0],[1,0.5,0],[1,0.75,0]];outlineConnect=0;fontColor=#232F3E;fillColor=#C925D1;strokeColor=#ffffff;dashed=0;verticalLabelPosition=bottom;verticalAlign=top;align=center;html=1;fontSize=12;fontStyle=0;aspect=fixed;shape=mxgraph.aws4.resourceIcon;resIcon=mxgraph.aws4.dynamodb;" parent="1" vertex="1">
          <mxGeometry x="790" y="520" width="78" height="78" as="geometry" />
        </mxCell>
        <mxCell id="2Zm2wRLCPf6YTY4AgQdH-8" style="edgeStyle=orthogonalEdgeStyle;rounded=0;orthogonalLoop=1;jettySize=auto;html=1;entryX=0;entryY=0.5;entryDx=0;entryDy=0;entryPerimeter=0;" parent="1" source="2Zm2wRLCPf6YTY4AgQdH-2" target="2Zm2wRLCPf6YTY4AgQdH-3" edge="1">
          <mxGeometry relative="1" as="geometry" />
        </mxCell>
        <mxCell id="2Zm2wRLCPf6YTY4AgQdH-10" value="OIA (Origin Identity Access)" style="text;html=1;align=center;verticalAlign=middle;whiteSpace=wrap;rounded=0;" parent="1" vertex="1">
          <mxGeometry x="100" y="570" width="160" height="30" as="geometry" />
        </mxCell>
        <mxCell id="2Zm2wRLCPf6YTY4AgQdH-11" style="edgeStyle=orthogonalEdgeStyle;rounded=0;orthogonalLoop=1;jettySize=auto;html=1;entryX=0;entryY=0.5;entryDx=0;entryDy=0;entryPerimeter=0;" parent="1" source="2Zm2wRLCPf6YTY4AgQdH-3" target="2Zm2wRLCPf6YTY4AgQdH-4" edge="1">
          <mxGeometry relative="1" as="geometry" />
        </mxCell>
        <mxCell id="2Zm2wRLCPf6YTY4AgQdH-13" value="HTTP" style="edgeLabel;html=1;align=center;verticalAlign=middle;resizable=0;points=[];" parent="2Zm2wRLCPf6YTY4AgQdH-11" vertex="1" connectable="0">
          <mxGeometry x="-0.122" relative="1" as="geometry">
            <mxPoint x="3" y="-9" as="offset" />
          </mxGeometry>
        </mxCell>
        <mxCell id="2Zm2wRLCPf6YTY4AgQdH-16" style="edgeStyle=orthogonalEdgeStyle;rounded=0;orthogonalLoop=1;jettySize=auto;html=1;entryX=0;entryY=0.5;entryDx=0;entryDy=0;entryPerimeter=0;" parent="1" source="2Zm2wRLCPf6YTY4AgQdH-3" target="2Zm2wRLCPf6YTY4AgQdH-5" edge="1">
          <mxGeometry relative="1" as="geometry">
            <Array as="points">
              <mxPoint x="319" y="309" />
            </Array>
          </mxGeometry>
        </mxCell>
        <mxCell id="2Zm2wRLCPf6YTY4AgQdH-17" value="Authenticate" style="edgeLabel;html=1;align=center;verticalAlign=middle;resizable=0;points=[];" parent="2Zm2wRLCPf6YTY4AgQdH-16" vertex="1" connectable="0">
          <mxGeometry x="-0.4841" relative="1" as="geometry">
            <mxPoint as="offset" />
          </mxGeometry>
        </mxCell>
        <mxCell id="2Zm2wRLCPf6YTY4AgQdH-18" style="edgeStyle=orthogonalEdgeStyle;rounded=0;orthogonalLoop=1;jettySize=auto;html=1;entryX=1;entryY=0.5;entryDx=0;entryDy=0;entryPerimeter=0;" parent="1" source="2Zm2wRLCPf6YTY4AgQdH-4" target="2Zm2wRLCPf6YTY4AgQdH-5" edge="1">
          <mxGeometry relative="1" as="geometry">
            <Array as="points">
              <mxPoint x="480" y="309" />
            </Array>
          </mxGeometry>
        </mxCell>
        <mxCell id="2Zm2wRLCPf6YTY4AgQdH-19" value="Authorize" style="edgeLabel;html=1;align=center;verticalAlign=middle;resizable=0;points=[];" parent="2Zm2wRLCPf6YTY4AgQdH-18" vertex="1" connectable="0">
          <mxGeometry x="-0.3333" y="4" relative="1" as="geometry">
            <mxPoint as="offset" />
          </mxGeometry>
        </mxCell>
        <mxCell id="2Zm2wRLCPf6YTY4AgQdH-48" style="edgeStyle=orthogonalEdgeStyle;rounded=0;orthogonalLoop=1;jettySize=auto;html=1;entryX=0.5;entryY=1;entryDx=0;entryDy=0;" parent="1" source="2Zm2wRLCPf6YTY4AgQdH-23" target="2Zm2wRLCPf6YTY4AgQdH-46" edge="1">
          <mxGeometry relative="1" as="geometry">
            <Array as="points">
              <mxPoint x="-310" y="1040" />
              <mxPoint x="1100" y="1040" />
            </Array>
          </mxGeometry>
        </mxCell>
        <mxCell id="2Zm2wRLCPf6YTY4AgQdH-49" value="Subscribe" style="edgeLabel;html=1;align=center;verticalAlign=middle;resizable=0;points=[];" parent="2Zm2wRLCPf6YTY4AgQdH-48" vertex="1" connectable="0">
          <mxGeometry x="-0.8452" y="-1" relative="1" as="geometry">
            <mxPoint x="31" y="-113" as="offset" />
          </mxGeometry>
        </mxCell>
        <mxCell id="2Zm2wRLCPf6YTY4AgQdH-23" value="" style="strokeWidth=1;shadow=0;dashed=0;align=center;html=1;shape=mxgraph.mockup.containers.browserWindow;rSize=0;strokeColor=#666666;strokeColor2=#008cff;strokeColor3=#c4c4c4;mainText=,;recursiveResize=0;" parent="1" vertex="1">
          <mxGeometry x="-490" y="438.5" width="380" height="241" as="geometry" />
        </mxCell>
        <mxCell id="2Zm2wRLCPf6YTY4AgQdH-24" value="Page 1" style="strokeWidth=1;shadow=0;dashed=0;align=center;html=1;shape=mxgraph.mockup.containers.anchor;fontSize=17;fontColor=#666666;align=left;whiteSpace=wrap;" parent="2Zm2wRLCPf6YTY4AgQdH-23" vertex="1">
          <mxGeometry x="60" y="12" width="110" height="26" as="geometry" />
        </mxCell>
        <mxCell id="2Zm2wRLCPf6YTY4AgQdH-25" value="https://www.climapush.com.br" style="strokeWidth=1;shadow=0;dashed=0;align=center;html=1;shape=mxgraph.mockup.containers.anchor;rSize=0;fontSize=17;fontColor=#666666;align=left;" parent="2Zm2wRLCPf6YTY4AgQdH-23" vertex="1">
          <mxGeometry x="130" y="60" width="250" height="26" as="geometry" />
        </mxCell>
        <mxCell id="2Zm2wRLCPf6YTY4AgQdH-26" style="edgeStyle=orthogonalEdgeStyle;rounded=0;orthogonalLoop=1;jettySize=auto;html=1;entryX=0;entryY=0.5;entryDx=0;entryDy=0;entryPerimeter=0;" parent="1" source="2Zm2wRLCPf6YTY4AgQdH-23" target="2Zm2wRLCPf6YTY4AgQdH-2" edge="1">
          <mxGeometry relative="1" as="geometry" />
        </mxCell>
        <mxCell id="2Zm2wRLCPf6YTY4AgQdH-28" value="AWS" style="text;html=1;align=center;verticalAlign=middle;whiteSpace=wrap;rounded=0;fontStyle=1;fontColor=#ffa302;" parent="1" vertex="1">
          <mxGeometry x="-40" y="200" width="60" height="30" as="geometry" />
        </mxCell>
        <mxCell id="2Zm2wRLCPf6YTY4AgQdH-29" value="CPTEC" style="sketch=0;outlineConnect=0;fontColor=#232F3E;gradientColor=none;fillColor=#E7157B;strokeColor=none;dashed=0;verticalLabelPosition=bottom;verticalAlign=top;align=center;html=1;fontSize=12;fontStyle=0;aspect=fixed;pointerEvents=1;shape=mxgraph.aws4.endpoint;" parent="1" vertex="1">
          <mxGeometry x="1070" y="210" width="78" height="78" as="geometry" />
        </mxCell>
        <mxCell id="2Zm2wRLCPf6YTY4AgQdH-31" value="AWS SQS&lt;br&gt;(Subscribe)" style="sketch=0;points=[[0,0,0],[0.25,0,0],[0.5,0,0],[0.75,0,0],[1,0,0],[0,1,0],[0.25,1,0],[0.5,1,0],[0.75,1,0],[1,1,0],[0,0.25,0],[0,0.5,0],[0,0.75,0],[1,0.25,0],[1,0.5,0],[1,0.75,0]];outlineConnect=0;fontColor=#232F3E;fillColor=#E7157B;strokeColor=#ffffff;dashed=0;verticalLabelPosition=bottom;verticalAlign=top;align=center;html=1;fontSize=12;fontStyle=0;aspect=fixed;shape=mxgraph.aws4.resourceIcon;resIcon=mxgraph.aws4.sqs;" parent="1" vertex="1">
          <mxGeometry x="620" y="870" width="78" height="78" as="geometry" />
        </mxCell>
        <mxCell id="2Zm2wRLCPf6YTY4AgQdH-32" value="AWS Event Bridge&lt;br&gt;(Scheduler cron)" style="sketch=0;points=[[0,0,0],[0.25,0,0],[0.5,0,0],[0.75,0,0],[1,0,0],[0,1,0],[0.25,1,0],[0.5,1,0],[0.75,1,0],[1,1,0],[0,0.25,0],[0,0.5,0],[0,0.75,0],[1,0.25,0],[1,0.5,0],[1,0.75,0]];outlineConnect=0;fontColor=#232F3E;fillColor=#E7157B;strokeColor=#ffffff;dashed=0;verticalLabelPosition=bottom;verticalAlign=top;align=center;html=1;fontSize=12;fontStyle=0;aspect=fixed;shape=mxgraph.aws4.resourceIcon;resIcon=mxgraph.aws4.eventbridge;" parent="1" vertex="1">
          <mxGeometry x="440" y="690" width="78" height="78" as="geometry" />
        </mxCell>
        <mxCell id="2Zm2wRLCPf6YTY4AgQdH-47" style="edgeStyle=orthogonalEdgeStyle;rounded=0;orthogonalLoop=1;jettySize=auto;html=1;entryX=0;entryY=0.5;entryDx=0;entryDy=0;" parent="1" source="2Zm2wRLCPf6YTY4AgQdH-35" target="2Zm2wRLCPf6YTY4AgQdH-46" edge="1">
          <mxGeometry relative="1" as="geometry" />
        </mxCell>
        <mxCell id="2Zm2wRLCPf6YTY4AgQdH-35" value="AWS SNS&lt;br&gt;(EndpointTarget)" style="sketch=0;points=[[0,0,0],[0.25,0,0],[0.5,0,0],[0.75,0,0],[1,0,0],[0,1,0],[0.25,1,0],[0.5,1,0],[0.75,1,0],[1,1,0],[0,0.25,0],[0,0.5,0],[0,0.75,0],[1,0.25,0],[1,0.5,0],[1,0.75,0]];outlineConnect=0;fontColor=#232F3E;fillColor=#E7157B;strokeColor=#ffffff;dashed=0;verticalLabelPosition=bottom;verticalAlign=top;align=center;html=1;fontSize=12;fontStyle=0;aspect=fixed;shape=mxgraph.aws4.resourceIcon;resIcon=mxgraph.aws4.sns;" parent="1" vertex="1">
          <mxGeometry x="796" y="706" width="78" height="78" as="geometry" />
        </mxCell>
        <mxCell id="2Zm2wRLCPf6YTY4AgQdH-37" value="Notification" style="verticalLabelPosition=bottom;html=1;verticalAlign=top;align=center;strokeColor=none;fillColor=#00BEF2;shape=mxgraph.azure.notification_hub;pointerEvents=1;" parent="1" vertex="1">
          <mxGeometry x="970" y="660" width="50" height="50" as="geometry" />
        </mxCell>
        <mxCell id="2Zm2wRLCPf6YTY4AgQdH-38" style="edgeStyle=orthogonalEdgeStyle;rounded=0;orthogonalLoop=1;jettySize=auto;html=1;entryX=0;entryY=0.5;entryDx=0;entryDy=0;entryPerimeter=0;" parent="1" source="2Zm2wRLCPf6YTY4AgQdH-32" target="2Zm2wRLCPf6YTY4AgQdH-6" edge="1">
          <mxGeometry relative="1" as="geometry">
            <Array as="points">
              <mxPoint x="590" y="729" />
              <mxPoint x="590" y="559" />
            </Array>
          </mxGeometry>
        </mxCell>
        <mxCell id="2Zm2wRLCPf6YTY4AgQdH-39" value="Trigger" style="edgeLabel;html=1;align=center;verticalAlign=middle;resizable=0;points=[];" parent="2Zm2wRLCPf6YTY4AgQdH-38" vertex="1" connectable="0">
          <mxGeometry x="-0.6739" y="-2" relative="1" as="geometry">
            <mxPoint x="-9" y="-11" as="offset" />
          </mxGeometry>
        </mxCell>
        <mxCell id="2Zm2wRLCPf6YTY4AgQdH-40" style="edgeStyle=orthogonalEdgeStyle;rounded=0;orthogonalLoop=1;jettySize=auto;html=1;entryX=0;entryY=0.5;entryDx=0;entryDy=0;entryPerimeter=0;" parent="1" source="2Zm2wRLCPf6YTY4AgQdH-6" target="2Zm2wRLCPf6YTY4AgQdH-35" edge="1">
          <mxGeometry relative="1" as="geometry" />
        </mxCell>
        <mxCell id="2Zm2wRLCPf6YTY4AgQdH-41" value="Push" style="edgeLabel;html=1;align=center;verticalAlign=middle;resizable=0;points=[];" parent="2Zm2wRLCPf6YTY4AgQdH-40" vertex="1" connectable="0">
          <mxGeometry x="0.2424" y="1" relative="1" as="geometry">
            <mxPoint x="-18" y="5" as="offset" />
          </mxGeometry>
        </mxCell>
        <mxCell id="2Zm2wRLCPf6YTY4AgQdH-46" value="3th party&lt;br&gt;Message&lt;br&gt;Service" style="whiteSpace=wrap;html=1;aspect=fixed;" parent="1" vertex="1">
          <mxGeometry x="1060" y="705" width="80" height="80" as="geometry" />
        </mxCell>
        <mxCell id="2Zm2wRLCPf6YTY4AgQdH-50" value="Worker" style="outlineConnect=0;dashed=0;verticalLabelPosition=bottom;verticalAlign=top;align=center;html=1;shape=mxgraph.aws3.worker;fillColor=#D9A741;gradientColor=none;" parent="1" vertex="1">
          <mxGeometry x="-380" y="643" width="60" height="63" as="geometry" />
        </mxCell>
        <mxCell id="2Zm2wRLCPf6YTY4AgQdH-53" value="" style="sketch=0;points=[[0,0,0],[0.25,0,0],[0.5,0,0],[0.75,0,0],[1,0,0],[0,1,0],[0.25,1,0],[0.5,1,0],[0.75,1,0],[1,1,0],[0,0.25,0],[0,0.5,0],[0,0.75,0],[1,0.25,0],[1,0.5,0],[1,0.75,0]];outlineConnect=0;fontColor=#232F3E;fillColor=#ED7100;strokeColor=#ffffff;dashed=0;verticalLabelPosition=bottom;verticalAlign=top;align=center;html=1;fontSize=12;fontStyle=0;aspect=fixed;shape=mxgraph.aws4.resourceIcon;resIcon=mxgraph.aws4.lambda;" parent="1" vertex="1">
          <mxGeometry x="660" y="492" width="78" height="78" as="geometry" />
        </mxCell>
        <mxCell id="2Zm2wRLCPf6YTY4AgQdH-52" value="" style="sketch=0;points=[[0,0,0],[0.25,0,0],[0.5,0,0],[0.75,0,0],[1,0,0],[0,1,0],[0.25,1,0],[0.5,1,0],[0.75,1,0],[1,1,0],[0,0.25,0],[0,0.5,0],[0,0.75,0],[1,0.25,0],[1,0.5,0],[1,0.75,0]];outlineConnect=0;fontColor=#232F3E;fillColor=#ED7100;strokeColor=#ffffff;dashed=0;verticalLabelPosition=bottom;verticalAlign=top;align=center;html=1;fontSize=12;fontStyle=0;aspect=fixed;shape=mxgraph.aws4.resourceIcon;resIcon=mxgraph.aws4.lambda;" parent="1" vertex="1">
          <mxGeometry x="638" y="505" width="82" height="82" as="geometry" />
        </mxCell>
        <mxCell id="fIfjESfUqvcu4jH1xxQw-4" style="edgeStyle=orthogonalEdgeStyle;rounded=0;orthogonalLoop=1;jettySize=auto;html=1;exitX=1;exitY=0.5;exitDx=0;exitDy=0;exitPerimeter=0;strokeColor=#B3B3B3;" edge="1" parent="1" source="2Zm2wRLCPf6YTY4AgQdH-6" target="2Zm2wRLCPf6YTY4AgQdH-31">
          <mxGeometry relative="1" as="geometry">
            <Array as="points">
              <mxPoint x="659" y="559" />
            </Array>
          </mxGeometry>
        </mxCell>
        <mxCell id="2Zm2wRLCPf6YTY4AgQdH-6" value="AWS Lambda&lt;br&gt;(Function/Usecase)" style="sketch=0;points=[[0,0,0],[0.25,0,0],[0.5,0,0],[0.75,0,0],[1,0,0],[0,1,0],[0.25,1,0],[0.5,1,0],[0.75,1,0],[1,1,0],[0,0.25,0],[0,0.5,0],[0,0.75,0],[1,0.25,0],[1,0.5,0],[1,0.75,0]];outlineConnect=0;fontColor=#232F3E;fillColor=#ED7100;strokeColor=#ffffff;dashed=0;verticalLabelPosition=bottom;verticalAlign=top;align=center;html=1;fontSize=12;fontStyle=0;aspect=fixed;shape=mxgraph.aws4.resourceIcon;resIcon=mxgraph.aws4.lambda;" parent="1" vertex="1">
          <mxGeometry x="620" y="520" width="78" height="78" as="geometry" />
        </mxCell>
        <mxCell id="2Zm2wRLCPf6YTY4AgQdH-55" value="AWS Lambda&lt;br&gt;(Function/Usecase)" style="sketch=0;points=[[0,0,0],[0.25,0,0],[0.5,0,0],[0.75,0,0],[1,0,0],[0,1,0],[0.25,1,0],[0.5,1,0],[0.75,1,0],[1,1,0],[0,0.25,0],[0,0.5,0],[0,0.75,0],[1,0.25,0],[1,0.5,0],[1,0.75,0]];outlineConnect=0;fontColor=#232F3E;fillColor=#ED7100;strokeColor=#ffffff;dashed=0;verticalLabelPosition=bottom;verticalAlign=top;align=center;html=1;fontSize=12;fontStyle=0;aspect=fixed;shape=mxgraph.aws4.resourceIcon;resIcon=mxgraph.aws4.lambda;" parent="1" vertex="1">
          <mxGeometry x="796" y="850" width="78" height="78" as="geometry" />
        </mxCell>
        <mxCell id="2Zm2wRLCPf6YTY4AgQdH-58" value="" style="rounded=1;whiteSpace=wrap;html=1;fillColor=#E6E6E6;gradientColor=none;fillStyle=auto;opacity=50;" parent="1" vertex="1">
          <mxGeometry x="590" y="829" width="330" height="160" as="geometry" />
        </mxCell>
        <mxCell id="2Zm2wRLCPf6YTY4AgQdH-59" value="For Future Features" style="text;html=1;align=center;verticalAlign=middle;whiteSpace=wrap;rounded=0;" parent="1" vertex="1">
          <mxGeometry x="690" y="960" width="142" height="30" as="geometry" />
        </mxCell>
        <mxCell id="2Zm2wRLCPf6YTY4AgQdH-60" value="" style="strokeColor=#dddddd;shadow=1;strokeWidth=1;rounded=1;absoluteArcSize=1;arcSize=2;" parent="1" vertex="1">
          <mxGeometry x="1130" y="670" width="100" height="60" as="geometry" />
        </mxCell>
        <mxCell id="2Zm2wRLCPf6YTY4AgQdH-61" value="&lt;font color=&quot;#000000&quot;&gt;FCM&lt;/font&gt;&lt;br&gt;Firebase" style="sketch=0;dashed=0;connectable=0;html=1;fillColor=#5184F3;strokeColor=none;shape=mxgraph.gcp2.firebase;part=1;labelPosition=right;verticalLabelPosition=middle;align=left;verticalAlign=middle;spacingLeft=5;fontColor=#999999;fontSize=12;" parent="2Zm2wRLCPf6YTY4AgQdH-60" vertex="1">
          <mxGeometry width="32.4" height="45" relative="1" as="geometry">
            <mxPoint x="5" y="7" as="offset" />
          </mxGeometry>
        </mxCell>
        <mxCell id="2Zm2wRLCPf6YTY4AgQdH-62" value="AWS Step Functions&lt;br&gt;(Circuit Breaker)&lt;br&gt;(optional for CPTEC fails)" style="sketch=0;points=[[0,0,0],[0.25,0,0],[0.5,0,0],[0.75,0,0],[1,0,0],[0,1,0],[0.25,1,0],[0.5,1,0],[0.75,1,0],[1,1,0],[0,0.25,0],[0,0.5,0],[0,0.75,0],[1,0.25,0],[1,0.5,0],[1,0.75,0]];outlineConnect=0;fontColor=#232F3E;fillColor=#E7157B;strokeColor=#ffffff;dashed=0;verticalLabelPosition=bottom;verticalAlign=top;align=center;html=1;fontSize=12;fontStyle=0;aspect=fixed;shape=mxgraph.aws4.resourceIcon;resIcon=mxgraph.aws4.step_functions;" parent="1" vertex="1">
          <mxGeometry x="790" y="320" width="78" height="78" as="geometry" />
        </mxCell>
        <mxCell id="2Zm2wRLCPf6YTY4AgQdH-66" value="" style="rounded=1;whiteSpace=wrap;html=1;fillColor=#E6E6E6;gradientColor=none;fillStyle=auto;opacity=50;" parent="1" vertex="1">
          <mxGeometry x="734" y="310" width="190" height="180" as="geometry" />
        </mxCell>
        <mxCell id="2Zm2wRLCPf6YTY4AgQdH-67" value="For Future Features" style="text;html=1;align=center;verticalAlign=middle;whiteSpace=wrap;rounded=0;" parent="1" vertex="1">
          <mxGeometry x="760" y="450" width="142" height="30" as="geometry" />
        </mxCell>
        <mxCell id="e8C-CaGicP8ONmUUrE0p-1" value="&lt;span style=&quot;color: rgb(0, 0, 0);&quot;&gt;AWS Cloudfront&lt;/span&gt;&lt;br style=&quot;color: rgb(0, 0, 0);&quot;&gt;&lt;span style=&quot;color: rgb(0, 0, 0);&quot;&gt;(CDN)&lt;/span&gt;" style="sketch=0;points=[[0,0,0],[0.25,0,0],[0.5,0,0],[0.75,0,0],[1,0,0],[0,1,0],[0.25,1,0],[0.5,1,0],[0.75,1,0],[1,1,0],[0,0.25,0],[0,0.5,0],[0,0.75,0],[1,0.25,0],[1,0.5,0],[1,0.75,0]];outlineConnect=0;fontColor=#232F3E;fillColor=#8C4FFF;strokeColor=#ffffff;dashed=0;verticalLabelPosition=bottom;verticalAlign=top;align=center;html=1;fontSize=12;fontStyle=0;aspect=fixed;shape=mxgraph.aws4.resourceIcon;resIcon=mxgraph.aws4.cloudfront;" parent="1" vertex="1">
          <mxGeometry y="1261.5" width="78" height="78" as="geometry" />
        </mxCell>
        <mxCell id="e8C-CaGicP8ONmUUrE0p-2" value="AWS S3&lt;br&gt;(Static Content)&lt;br&gt;WEB App" style="sketch=0;points=[[0,0,0],[0.25,0,0],[0.5,0,0],[0.75,0,0],[1,0,0],[0,1,0],[0.25,1,0],[0.5,1,0],[0.75,1,0],[1,1,0],[0,0.25,0],[0,0.5,0],[0,0.75,0],[1,0.25,0],[1,0.5,0],[1,0.75,0]];outlineConnect=0;fontColor=#232F3E;fillColor=#7AA116;strokeColor=#ffffff;dashed=0;verticalLabelPosition=bottom;verticalAlign=top;align=center;html=1;fontSize=12;fontStyle=0;aspect=fixed;shape=mxgraph.aws4.resourceIcon;resIcon=mxgraph.aws4.s3;" parent="1" vertex="1">
          <mxGeometry x="280" y="1261.5" width="78" height="78" as="geometry" />
        </mxCell>
        <mxCell id="e8C-CaGicP8ONmUUrE0p-3" style="edgeStyle=orthogonalEdgeStyle;rounded=0;orthogonalLoop=1;jettySize=auto;html=1;entryX=0;entryY=0.5;entryDx=0;entryDy=0;entryPerimeter=0;" parent="1" source="e8C-CaGicP8ONmUUrE0p-1" target="e8C-CaGicP8ONmUUrE0p-2" edge="1">
          <mxGeometry relative="1" as="geometry" />
        </mxCell>
        <mxCell id="e8C-CaGicP8ONmUUrE0p-4" value="OIA (Origin Identity Access)" style="text;html=1;align=center;verticalAlign=middle;whiteSpace=wrap;rounded=0;" parent="1" vertex="1">
          <mxGeometry x="100" y="1311.5" width="160" height="30" as="geometry" />
        </mxCell>
        <mxCell id="e8C-CaGicP8ONmUUrE0p-5" value="Authenticate" style="edgeLabel;html=1;align=center;verticalAlign=middle;resizable=0;points=[];" parent="1" vertex="1" connectable="0">
          <mxGeometry x="319" y="1197.5" as="geometry" />
        </mxCell>
        <mxCell id="e8C-CaGicP8ONmUUrE0p-6" value="Subscribe" style="edgeLabel;html=1;align=center;verticalAlign=middle;resizable=0;points=[];" parent="1" vertex="1" connectable="0">
          <mxGeometry x="-270" y="1480" as="geometry" />
        </mxCell>
        <mxCell id="e8C-CaGicP8ONmUUrE0p-17" style="edgeStyle=orthogonalEdgeStyle;rounded=0;orthogonalLoop=1;jettySize=auto;html=1;entryX=0.5;entryY=1;entryDx=0;entryDy=0;" parent="1" source="e8C-CaGicP8ONmUUrE0p-7" target="e8C-CaGicP8ONmUUrE0p-12" edge="1">
          <mxGeometry relative="1" as="geometry">
            <Array as="points">
              <mxPoint x="-300" y="1570" />
              <mxPoint x="604" y="1570" />
            </Array>
          </mxGeometry>
        </mxCell>
        <mxCell id="e8C-CaGicP8ONmUUrE0p-7" value="" style="strokeWidth=1;shadow=0;dashed=0;align=center;html=1;shape=mxgraph.mockup.containers.browserWindow;rSize=0;strokeColor=#666666;strokeColor2=#008cff;strokeColor3=#c4c4c4;mainText=,;recursiveResize=0;" parent="1" vertex="1">
          <mxGeometry x="-490" y="1180" width="380" height="241" as="geometry" />
        </mxCell>
        <mxCell id="e8C-CaGicP8ONmUUrE0p-8" value="Page 1" style="strokeWidth=1;shadow=0;dashed=0;align=center;html=1;shape=mxgraph.mockup.containers.anchor;fontSize=17;fontColor=#666666;align=left;whiteSpace=wrap;" parent="e8C-CaGicP8ONmUUrE0p-7" vertex="1">
          <mxGeometry x="60" y="12" width="110" height="26" as="geometry" />
        </mxCell>
        <mxCell id="e8C-CaGicP8ONmUUrE0p-9" value="https://www.climapush.com.br" style="strokeWidth=1;shadow=0;dashed=0;align=center;html=1;shape=mxgraph.mockup.containers.anchor;rSize=0;fontSize=17;fontColor=#666666;align=left;" parent="e8C-CaGicP8ONmUUrE0p-7" vertex="1">
          <mxGeometry x="130" y="60" width="250" height="26" as="geometry" />
        </mxCell>
        <mxCell id="e8C-CaGicP8ONmUUrE0p-10" style="edgeStyle=orthogonalEdgeStyle;rounded=0;orthogonalLoop=1;jettySize=auto;html=1;entryX=0;entryY=0.5;entryDx=0;entryDy=0;entryPerimeter=0;" parent="1" source="e8C-CaGicP8ONmUUrE0p-7" target="e8C-CaGicP8ONmUUrE0p-1" edge="1">
          <mxGeometry relative="1" as="geometry" />
        </mxCell>
        <mxCell id="e8C-CaGicP8ONmUUrE0p-11" value="Worker" style="outlineConnect=0;dashed=0;verticalLabelPosition=bottom;verticalAlign=top;align=center;html=1;shape=mxgraph.aws3.worker;fillColor=#D9A741;gradientColor=none;" parent="1" vertex="1">
          <mxGeometry x="-380" y="1384.5" width="60" height="63" as="geometry" />
        </mxCell>
        <mxCell id="e8C-CaGicP8ONmUUrE0p-12" value="3th party&lt;br&gt;Message&lt;br&gt;Service" style="whiteSpace=wrap;html=1;aspect=fixed;" parent="1" vertex="1">
          <mxGeometry x="564" y="1341" width="80" height="80" as="geometry" />
        </mxCell>
        <mxCell id="e8C-CaGicP8ONmUUrE0p-13" value="" style="strokeColor=#dddddd;shadow=1;strokeWidth=1;rounded=1;absoluteArcSize=1;arcSize=2;" parent="1" vertex="1">
          <mxGeometry x="634" y="1306" width="100" height="60" as="geometry" />
        </mxCell>
        <mxCell id="e8C-CaGicP8ONmUUrE0p-14" value="&lt;font color=&quot;#000000&quot;&gt;FCM&lt;/font&gt;&lt;br&gt;Firebase" style="sketch=0;dashed=0;connectable=0;html=1;fillColor=#5184F3;strokeColor=none;shape=mxgraph.gcp2.firebase;part=1;labelPosition=right;verticalLabelPosition=middle;align=left;verticalAlign=middle;spacingLeft=5;fontColor=#999999;fontSize=12;" parent="e8C-CaGicP8ONmUUrE0p-13" vertex="1">
          <mxGeometry width="32.4" height="45" relative="1" as="geometry">
            <mxPoint x="5" y="7" as="offset" />
          </mxGeometry>
        </mxCell>
        <mxCell id="e8C-CaGicP8ONmUUrE0p-15" value="" style="rounded=0;whiteSpace=wrap;html=1;fillColor=none;dashed=1;strokeWidth=4;strokeColor=#ffa200;" parent="1" vertex="1">
          <mxGeometry x="-88" y="1090" width="598" height="350" as="geometry" />
        </mxCell>
        <mxCell id="e8C-CaGicP8ONmUUrE0p-16" value="AWS" style="text;html=1;align=center;verticalAlign=middle;whiteSpace=wrap;rounded=0;fontStyle=1;fontColor=#ffa302;" parent="1" vertex="1">
          <mxGeometry x="-80" y="1100" width="60" height="30" as="geometry" />
        </mxCell>
        <mxCell id="e8C-CaGicP8ONmUUrE0p-18" style="edgeStyle=orthogonalEdgeStyle;rounded=0;orthogonalLoop=1;jettySize=auto;html=1;" parent="1" source="e8C-CaGicP8ONmUUrE0p-20" target="e8C-CaGicP8ONmUUrE0p-31" edge="1">
          <mxGeometry relative="1" as="geometry" />
        </mxCell>
        <mxCell id="e8C-CaGicP8ONmUUrE0p-19" value="Trigger" style="edgeLabel;html=1;align=center;verticalAlign=middle;resizable=0;points=[];" parent="e8C-CaGicP8ONmUUrE0p-18" vertex="1" connectable="0">
          <mxGeometry x="-0.1569" y="-1" relative="1" as="geometry">
            <mxPoint y="-10" as="offset" />
          </mxGeometry>
        </mxCell>
        <mxCell id="e8C-CaGicP8ONmUUrE0p-20" value="AWS Api Gateway&lt;br&gt;(Api Gateway)" style="sketch=0;points=[[0,0,0],[0.25,0,0],[0.5,0,0],[0.75,0,0],[1,0,0],[0,1,0],[0.25,1,0],[0.5,1,0],[0.75,1,0],[1,1,0],[0,0.25,0],[0,0.5,0],[0,0.75,0],[1,0.25,0],[1,0.5,0],[1,0.75,0]];outlineConnect=0;fontColor=#232F3E;fillColor=#E7157B;strokeColor=#ffffff;dashed=0;verticalLabelPosition=bottom;verticalAlign=top;align=center;html=1;fontSize=12;fontStyle=0;aspect=fixed;shape=mxgraph.aws4.resourceIcon;resIcon=mxgraph.aws4.api_gateway;" parent="1" vertex="1">
          <mxGeometry x="-418" y="2020" width="78" height="78" as="geometry" />
        </mxCell>
        <mxCell id="e8C-CaGicP8ONmUUrE0p-21" value="AWS Cognito&lt;br&gt;(Identity Provider)" style="sketch=0;points=[[0,0,0],[0.25,0,0],[0.5,0,0],[0.75,0,0],[1,0,0],[0,1,0],[0.25,1,0],[0.5,1,0],[0.75,1,0],[1,1,0],[0,0.25,0],[0,0.5,0],[0,0.75,0],[1,0.25,0],[1,0.5,0],[1,0.75,0]];outlineConnect=0;fontColor=#232F3E;fillColor=#DD344C;strokeColor=#ffffff;dashed=0;verticalLabelPosition=bottom;verticalAlign=top;align=center;html=1;fontSize=12;fontStyle=0;aspect=fixed;shape=mxgraph.aws4.resourceIcon;resIcon=mxgraph.aws4.cognito;" parent="1" vertex="1">
          <mxGeometry x="-500" y="1770" width="78" height="78" as="geometry" />
        </mxCell>
        <mxCell id="e8C-CaGicP8ONmUUrE0p-22" style="edgeStyle=orthogonalEdgeStyle;rounded=0;orthogonalLoop=1;jettySize=auto;html=1;" parent="1" source="e8C-CaGicP8ONmUUrE0p-31" target="e8C-CaGicP8ONmUUrE0p-26" edge="1">
          <mxGeometry relative="1" as="geometry">
            <Array as="points">
              <mxPoint x="-199" y="1750" />
            </Array>
          </mxGeometry>
        </mxCell>
        <mxCell id="e8C-CaGicP8ONmUUrE0p-23" value="HTTP" style="edgeLabel;html=1;align=center;verticalAlign=middle;resizable=0;points=[];" parent="e8C-CaGicP8ONmUUrE0p-22" vertex="1" connectable="0">
          <mxGeometry x="0.2188" y="2" relative="1" as="geometry">
            <mxPoint y="-8" as="offset" />
          </mxGeometry>
        </mxCell>
        <mxCell id="e8C-CaGicP8ONmUUrE0p-24" style="edgeStyle=orthogonalEdgeStyle;rounded=0;orthogonalLoop=1;jettySize=auto;html=1;entryX=1;entryY=0.5;entryDx=0;entryDy=0;entryPerimeter=0;" parent="1" source="e8C-CaGicP8ONmUUrE0p-20" target="e8C-CaGicP8ONmUUrE0p-21" edge="1">
          <mxGeometry relative="1" as="geometry">
            <Array as="points">
              <mxPoint x="-378" y="1809" />
            </Array>
          </mxGeometry>
        </mxCell>
        <mxCell id="e8C-CaGicP8ONmUUrE0p-25" value="Authorize" style="edgeLabel;html=1;align=center;verticalAlign=middle;resizable=0;points=[];" parent="e8C-CaGicP8ONmUUrE0p-24" vertex="1" connectable="0">
          <mxGeometry x="-0.3333" y="4" relative="1" as="geometry">
            <mxPoint as="offset" />
          </mxGeometry>
        </mxCell>
        <mxCell id="e8C-CaGicP8ONmUUrE0p-26" value="CPTEC" style="sketch=0;outlineConnect=0;fontColor=#232F3E;gradientColor=none;fillColor=#E7157B;strokeColor=none;dashed=0;verticalLabelPosition=bottom;verticalAlign=top;align=center;html=1;fontSize=12;fontStyle=0;aspect=fixed;pointerEvents=1;shape=mxgraph.aws4.endpoint;" parent="1" vertex="1">
          <mxGeometry x="212" y="1710" width="78" height="78" as="geometry" />
        </mxCell>
        <mxCell id="e8C-CaGicP8ONmUUrE0p-27" style="edgeStyle=orthogonalEdgeStyle;rounded=0;orthogonalLoop=1;jettySize=auto;html=1;entryX=0;entryY=0.5;entryDx=0;entryDy=0;entryPerimeter=0;" parent="1" source="e8C-CaGicP8ONmUUrE0p-32" target="e8C-CaGicP8ONmUUrE0p-31" edge="1">
          <mxGeometry relative="1" as="geometry">
            <Array as="points">
              <mxPoint x="-268" y="2229" />
              <mxPoint x="-268" y="2059" />
            </Array>
            <mxPoint x="-340" y="2229" as="sourcePoint" />
          </mxGeometry>
        </mxCell>
        <mxCell id="e8C-CaGicP8ONmUUrE0p-28" value="Trigger" style="edgeLabel;html=1;align=center;verticalAlign=middle;resizable=0;points=[];" parent="e8C-CaGicP8ONmUUrE0p-27" vertex="1" connectable="0">
          <mxGeometry x="-0.6739" y="-2" relative="1" as="geometry">
            <mxPoint x="-9" y="-11" as="offset" />
          </mxGeometry>
        </mxCell>
        <mxCell id="e8C-CaGicP8ONmUUrE0p-29" value="" style="sketch=0;points=[[0,0,0],[0.25,0,0],[0.5,0,0],[0.75,0,0],[1,0,0],[0,1,0],[0.25,1,0],[0.5,1,0],[0.75,1,0],[1,1,0],[0,0.25,0],[0,0.5,0],[0,0.75,0],[1,0.25,0],[1,0.5,0],[1,0.75,0]];outlineConnect=0;fontColor=#232F3E;fillColor=#ED7100;strokeColor=#ffffff;dashed=0;verticalLabelPosition=bottom;verticalAlign=top;align=center;html=1;fontSize=12;fontStyle=0;aspect=fixed;shape=mxgraph.aws4.resourceIcon;resIcon=mxgraph.aws4.lambda;" parent="1" vertex="1">
          <mxGeometry x="-198" y="1992" width="78" height="78" as="geometry" />
        </mxCell>
        <mxCell id="e8C-CaGicP8ONmUUrE0p-30" value="" style="sketch=0;points=[[0,0,0],[0.25,0,0],[0.5,0,0],[0.75,0,0],[1,0,0],[0,1,0],[0.25,1,0],[0.5,1,0],[0.75,1,0],[1,1,0],[0,0.25,0],[0,0.5,0],[0,0.75,0],[1,0.25,0],[1,0.5,0],[1,0.75,0]];outlineConnect=0;fontColor=#232F3E;fillColor=#ED7100;strokeColor=#ffffff;dashed=0;verticalLabelPosition=bottom;verticalAlign=top;align=center;html=1;fontSize=12;fontStyle=0;aspect=fixed;shape=mxgraph.aws4.resourceIcon;resIcon=mxgraph.aws4.lambda;" parent="1" vertex="1">
          <mxGeometry x="-220" y="2005" width="82" height="82" as="geometry" />
        </mxCell>
        <mxCell id="e8C-CaGicP8ONmUUrE0p-31" value="AWS Lambda&lt;br&gt;(Function/Usecase)" style="sketch=0;points=[[0,0,0],[0.25,0,0],[0.5,0,0],[0.75,0,0],[1,0,0],[0,1,0],[0.25,1,0],[0.5,1,0],[0.75,1,0],[1,1,0],[0,0.25,0],[0,0.5,0],[0,0.75,0],[1,0.25,0],[1,0.5,0],[1,0.75,0]];outlineConnect=0;fontColor=#232F3E;fillColor=#ED7100;strokeColor=#ffffff;dashed=0;verticalLabelPosition=bottom;verticalAlign=top;align=center;html=1;fontSize=12;fontStyle=0;aspect=fixed;shape=mxgraph.aws4.resourceIcon;resIcon=mxgraph.aws4.lambda;" parent="1" vertex="1">
          <mxGeometry x="-238" y="2020" width="78" height="78" as="geometry" />
        </mxCell>
        <mxCell id="e8C-CaGicP8ONmUUrE0p-32" value="AWS Event Bridge&lt;br&gt;(Scheduler cron)" style="sketch=0;points=[[0,0,0],[0.25,0,0],[0.5,0,0],[0.75,0,0],[1,0,0],[0,1,0],[0.25,1,0],[0.5,1,0],[0.75,1,0],[1,1,0],[0,0.25,0],[0,0.5,0],[0,0.75,0],[1,0.25,0],[1,0.5,0],[1,0.75,0]];outlineConnect=0;fontColor=#232F3E;fillColor=#E7157B;strokeColor=#ffffff;dashed=0;verticalLabelPosition=bottom;verticalAlign=top;align=center;html=1;fontSize=12;fontStyle=0;aspect=fixed;shape=mxgraph.aws4.resourceIcon;resIcon=mxgraph.aws4.eventbridge;" parent="1" vertex="1">
          <mxGeometry x="-418" y="2190" width="78" height="78" as="geometry" />
        </mxCell>
        <mxCell id="e8C-CaGicP8ONmUUrE0p-34" value="AWS" style="text;html=1;align=center;verticalAlign=middle;whiteSpace=wrap;rounded=0;fontStyle=1;fontColor=#ffa302;" parent="1" vertex="1">
          <mxGeometry x="-591" y="1710" width="60" height="30" as="geometry" />
        </mxCell>
        <mxCell id="e8C-CaGicP8ONmUUrE0p-35" value="" style="outlineConnect=0;dashed=0;verticalLabelPosition=bottom;verticalAlign=top;align=center;html=1;shape=mxgraph.aws3.internet_3;fillColor=#D2D3D3;gradientColor=none;" parent="1" vertex="1">
          <mxGeometry x="-730" y="2032" width="79.5" height="54" as="geometry" />
        </mxCell>
        <mxCell id="e8C-CaGicP8ONmUUrE0p-37" style="edgeStyle=orthogonalEdgeStyle;rounded=0;orthogonalLoop=1;jettySize=auto;html=1;entryX=0;entryY=0.5;entryDx=0;entryDy=0;entryPerimeter=0;" parent="1" source="e8C-CaGicP8ONmUUrE0p-35" target="e8C-CaGicP8ONmUUrE0p-20" edge="1">
          <mxGeometry relative="1" as="geometry" />
        </mxCell>
        <mxCell id="e8C-CaGicP8ONmUUrE0p-39" value="HTTP" style="edgeLabel;html=1;align=center;verticalAlign=middle;resizable=0;points=[];" parent="e8C-CaGicP8ONmUUrE0p-37" vertex="1" connectable="0">
          <mxGeometry x="0.1656" y="1" relative="1" as="geometry">
            <mxPoint as="offset" />
          </mxGeometry>
        </mxCell>
        <mxCell id="e8C-CaGicP8ONmUUrE0p-40" value="AWS Event Bridge&lt;br&gt;(Scheduler cron)" style="sketch=0;points=[[0,0,0],[0.25,0,0],[0.5,0,0],[0.75,0,0],[1,0,0],[0,1,0],[0.25,1,0],[0.5,1,0],[0.75,1,0],[1,1,0],[0,0.25,0],[0,0.5,0],[0,0.75,0],[1,0.25,0],[1,0.5,0],[1,0.75,0]];outlineConnect=0;fontColor=#232F3E;fillColor=#E7157B;strokeColor=#ffffff;dashed=0;verticalLabelPosition=bottom;verticalAlign=top;align=center;html=1;fontSize=12;fontStyle=0;aspect=fixed;shape=mxgraph.aws4.resourceIcon;resIcon=mxgraph.aws4.eventbridge;" parent="1" vertex="1">
          <mxGeometry x="-418" y="2600" width="78" height="78" as="geometry" />
        </mxCell>
        <mxCell id="e8C-CaGicP8ONmUUrE0p-41" style="edgeStyle=orthogonalEdgeStyle;rounded=0;orthogonalLoop=1;jettySize=auto;html=1;entryX=0;entryY=0.5;entryDx=0;entryDy=0;" parent="1" source="e8C-CaGicP8ONmUUrE0p-42" target="e8C-CaGicP8ONmUUrE0p-48" edge="1">
          <mxGeometry relative="1" as="geometry" />
        </mxCell>
        <mxCell id="e8C-CaGicP8ONmUUrE0p-42" value="AWS SNS&lt;br&gt;(EndpointTarget)" style="sketch=0;points=[[0,0,0],[0.25,0,0],[0.5,0,0],[0.75,0,0],[1,0,0],[0,1,0],[0.25,1,0],[0.5,1,0],[0.75,1,0],[1,1,0],[0,0.25,0],[0,0.5,0],[0,0.75,0],[1,0.25,0],[1,0.5,0],[1,0.75,0]];outlineConnect=0;fontColor=#232F3E;fillColor=#E7157B;strokeColor=#ffffff;dashed=0;verticalLabelPosition=bottom;verticalAlign=top;align=center;html=1;fontSize=12;fontStyle=0;aspect=fixed;shape=mxgraph.aws4.resourceIcon;resIcon=mxgraph.aws4.sns;" parent="1" vertex="1">
          <mxGeometry x="-62" y="2616" width="78" height="78" as="geometry" />
        </mxCell>
        <mxCell id="e8C-CaGicP8ONmUUrE0p-43" value="Notification" style="verticalLabelPosition=bottom;html=1;verticalAlign=top;align=center;strokeColor=none;fillColor=#00BEF2;shape=mxgraph.azure.notification_hub;pointerEvents=1;" parent="1" vertex="1">
          <mxGeometry x="112" y="2570" width="50" height="50" as="geometry" />
        </mxCell>
        <mxCell id="e8C-CaGicP8ONmUUrE0p-44" style="edgeStyle=orthogonalEdgeStyle;rounded=0;orthogonalLoop=1;jettySize=auto;html=1;entryX=0;entryY=0.5;entryDx=0;entryDy=0;entryPerimeter=0;" parent="1" source="e8C-CaGicP8ONmUUrE0p-40" target="e8C-CaGicP8ONmUUrE0p-49" edge="1">
          <mxGeometry relative="1" as="geometry">
            <Array as="points">
              <mxPoint x="-268" y="2639" />
              <mxPoint x="-268" y="2469" />
            </Array>
          </mxGeometry>
        </mxCell>
        <mxCell id="e8C-CaGicP8ONmUUrE0p-45" value="Trigger" style="edgeLabel;html=1;align=center;verticalAlign=middle;resizable=0;points=[];" parent="e8C-CaGicP8ONmUUrE0p-44" vertex="1" connectable="0">
          <mxGeometry x="-0.6739" y="-2" relative="1" as="geometry">
            <mxPoint x="-9" y="-11" as="offset" />
          </mxGeometry>
        </mxCell>
        <mxCell id="e8C-CaGicP8ONmUUrE0p-46" style="edgeStyle=orthogonalEdgeStyle;rounded=0;orthogonalLoop=1;jettySize=auto;html=1;entryX=0;entryY=0.5;entryDx=0;entryDy=0;entryPerimeter=0;" parent="1" source="e8C-CaGicP8ONmUUrE0p-49" target="e8C-CaGicP8ONmUUrE0p-42" edge="1">
          <mxGeometry relative="1" as="geometry" />
        </mxCell>
        <mxCell id="e8C-CaGicP8ONmUUrE0p-47" value="Push" style="edgeLabel;html=1;align=center;verticalAlign=middle;resizable=0;points=[];" parent="e8C-CaGicP8ONmUUrE0p-46" vertex="1" connectable="0">
          <mxGeometry x="0.2424" y="1" relative="1" as="geometry">
            <mxPoint x="-18" y="5" as="offset" />
          </mxGeometry>
        </mxCell>
        <mxCell id="e8C-CaGicP8ONmUUrE0p-48" value="3th party&lt;br&gt;Message&lt;br&gt;Service" style="whiteSpace=wrap;html=1;aspect=fixed;" parent="1" vertex="1">
          <mxGeometry x="202" y="2615" width="80" height="80" as="geometry" />
        </mxCell>
        <mxCell id="e8C-CaGicP8ONmUUrE0p-49" value="AWS Lambda&lt;br&gt;(Function/Usecase)" style="sketch=0;points=[[0,0,0],[0.25,0,0],[0.5,0,0],[0.75,0,0],[1,0,0],[0,1,0],[0.25,1,0],[0.5,1,0],[0.75,1,0],[1,1,0],[0,0.25,0],[0,0.5,0],[0,0.75,0],[1,0.25,0],[1,0.5,0],[1,0.75,0]];outlineConnect=0;fontColor=#232F3E;fillColor=#ED7100;strokeColor=#ffffff;dashed=0;verticalLabelPosition=bottom;verticalAlign=top;align=center;html=1;fontSize=12;fontStyle=0;aspect=fixed;shape=mxgraph.aws4.resourceIcon;resIcon=mxgraph.aws4.lambda;" parent="1" vertex="1">
          <mxGeometry x="-238" y="2430" width="78" height="78" as="geometry" />
        </mxCell>
        <mxCell id="e8C-CaGicP8ONmUUrE0p-50" value="" style="strokeColor=#dddddd;shadow=1;strokeWidth=1;rounded=1;absoluteArcSize=1;arcSize=2;" parent="1" vertex="1">
          <mxGeometry x="272" y="2580" width="100" height="60" as="geometry" />
        </mxCell>
        <mxCell id="e8C-CaGicP8ONmUUrE0p-51" value="&lt;font color=&quot;#000000&quot;&gt;FCM&lt;/font&gt;&lt;br&gt;Firebase" style="sketch=0;dashed=0;connectable=0;html=1;fillColor=#5184F3;strokeColor=none;shape=mxgraph.gcp2.firebase;part=1;labelPosition=right;verticalLabelPosition=middle;align=left;verticalAlign=middle;spacingLeft=5;fontColor=#999999;fontSize=12;" parent="e8C-CaGicP8ONmUUrE0p-50" vertex="1">
          <mxGeometry width="32.4" height="45" relative="1" as="geometry">
            <mxPoint x="5" y="7" as="offset" />
          </mxGeometry>
        </mxCell>
        <mxCell id="e8C-CaGicP8ONmUUrE0p-53" value="AWS" style="text;html=1;align=center;verticalAlign=middle;whiteSpace=wrap;rounded=0;fontStyle=1;fontColor=#ffa302;" parent="1" vertex="1">
          <mxGeometry x="-443" y="2394" width="60" height="30" as="geometry" />
        </mxCell>
        <mxCell id="fIfjESfUqvcu4jH1xxQw-1" style="edgeStyle=orthogonalEdgeStyle;rounded=0;orthogonalLoop=1;jettySize=auto;html=1;entryX=0;entryY=0.75;entryDx=0;entryDy=0;entryPerimeter=0;strokeColor=#B3B3B3;" edge="1" parent="1" source="2Zm2wRLCPf6YTY4AgQdH-55" target="2Zm2wRLCPf6YTY4AgQdH-35">
          <mxGeometry relative="1" as="geometry">
            <Array as="points">
              <mxPoint x="750" y="889" />
              <mxPoint x="750" y="765" />
            </Array>
          </mxGeometry>
        </mxCell>
        <mxCell id="fIfjESfUqvcu4jH1xxQw-2" style="edgeStyle=orthogonalEdgeStyle;rounded=0;orthogonalLoop=1;jettySize=auto;html=1;entryX=0;entryY=0.75;entryDx=0;entryDy=0;entryPerimeter=0;strokeColor=#CCCCCC;" edge="1" parent="1" source="2Zm2wRLCPf6YTY4AgQdH-31" target="2Zm2wRLCPf6YTY4AgQdH-55">
          <mxGeometry relative="1" as="geometry" />
        </mxCell>
        <mxCell id="fIfjESfUqvcu4jH1xxQw-5" value="AWS Event Bridge&lt;br&gt;(Scheduler cron)" style="sketch=0;points=[[0,0,0],[0.25,0,0],[0.5,0,0],[0.75,0,0],[1,0,0],[0,1,0],[0.25,1,0],[0.5,1,0],[0.75,1,0],[1,1,0],[0,0.25,0],[0,0.5,0],[0,0.75,0],[1,0.25,0],[1,0.5,0],[1,0.75,0]];outlineConnect=0;fontColor=#232F3E;fillColor=#E7157B;strokeColor=#ffffff;dashed=0;verticalLabelPosition=bottom;verticalAlign=top;align=center;html=1;fontSize=12;fontStyle=0;aspect=fixed;shape=mxgraph.aws4.resourceIcon;resIcon=mxgraph.aws4.eventbridge;" vertex="1" parent="1">
          <mxGeometry x="-430" y="3180" width="78" height="78" as="geometry" />
        </mxCell>
        <mxCell id="fIfjESfUqvcu4jH1xxQw-6" value="AWS SNS&lt;br&gt;(EndpointTarget)" style="sketch=0;points=[[0,0,0],[0.25,0,0],[0.5,0,0],[0.75,0,0],[1,0,0],[0,1,0],[0.25,1,0],[0.5,1,0],[0.75,1,0],[1,1,0],[0,0.25,0],[0,0.5,0],[0,0.75,0],[1,0.25,0],[1,0.5,0],[1,0.75,0]];outlineConnect=0;fontColor=#232F3E;fillColor=#E7157B;strokeColor=#ffffff;dashed=0;verticalLabelPosition=bottom;verticalAlign=top;align=center;html=1;fontSize=12;fontStyle=0;aspect=fixed;shape=mxgraph.aws4.resourceIcon;resIcon=mxgraph.aws4.sns;" vertex="1" parent="1">
          <mxGeometry x="-82" y="3200" width="78" height="78" as="geometry" />
        </mxCell>
        <mxCell id="fIfjESfUqvcu4jH1xxQw-7" style="edgeStyle=orthogonalEdgeStyle;rounded=0;orthogonalLoop=1;jettySize=auto;html=1;entryX=0;entryY=0.5;entryDx=0;entryDy=0;entryPerimeter=0;" edge="1" parent="1" source="fIfjESfUqvcu4jH1xxQw-5" target="fIfjESfUqvcu4jH1xxQw-11">
          <mxGeometry relative="1" as="geometry">
            <Array as="points">
              <mxPoint x="-280" y="3219" />
              <mxPoint x="-280" y="3049" />
            </Array>
          </mxGeometry>
        </mxCell>
        <mxCell id="fIfjESfUqvcu4jH1xxQw-8" value="Trigger" style="edgeLabel;html=1;align=center;verticalAlign=middle;resizable=0;points=[];" vertex="1" connectable="0" parent="fIfjESfUqvcu4jH1xxQw-7">
          <mxGeometry x="-0.6739" y="-2" relative="1" as="geometry">
            <mxPoint x="-9" y="-11" as="offset" />
          </mxGeometry>
        </mxCell>
        <mxCell id="fIfjESfUqvcu4jH1xxQw-11" value="AWS Lambda&lt;br&gt;(Function/Usecase)&lt;br&gt;Check notifications" style="sketch=0;points=[[0,0,0],[0.25,0,0],[0.5,0,0],[0.75,0,0],[1,0,0],[0,1,0],[0.25,1,0],[0.5,1,0],[0.75,1,0],[1,1,0],[0,0.25,0],[0,0.5,0],[0,0.75,0],[1,0.25,0],[1,0.5,0],[1,0.75,0]];outlineConnect=0;fontColor=#232F3E;fillColor=#ED7100;strokeColor=#ffffff;dashed=0;verticalLabelPosition=bottom;verticalAlign=top;align=center;html=1;fontSize=12;fontStyle=0;aspect=fixed;shape=mxgraph.aws4.resourceIcon;resIcon=mxgraph.aws4.lambda;" vertex="1" parent="1">
          <mxGeometry x="-250" y="3010" width="78" height="78" as="geometry" />
        </mxCell>
        <mxCell id="fIfjESfUqvcu4jH1xxQw-14" value="AWS DynamoDB&lt;div&gt;(NoSQL Database)&lt;/div&gt;" style="sketch=0;points=[[0,0,0],[0.25,0,0],[0.5,0,0],[0.75,0,0],[1,0,0],[0,1,0],[0.25,1,0],[0.5,1,0],[0.75,1,0],[1,1,0],[0,0.25,0],[0,0.5,0],[0,0.75,0],[1,0.25,0],[1,0.5,0],[1,0.75,0]];outlineConnect=0;fontColor=#232F3E;fillColor=#C925D1;strokeColor=#ffffff;dashed=0;verticalLabelPosition=bottom;verticalAlign=top;align=center;html=1;fontSize=12;fontStyle=0;aspect=fixed;shape=mxgraph.aws4.resourceIcon;resIcon=mxgraph.aws4.dynamodb;" vertex="1" parent="1">
          <mxGeometry x="-98" y="2020" width="78" height="78" as="geometry" />
        </mxCell>
        <mxCell id="fIfjESfUqvcu4jH1xxQw-15" style="edgeStyle=orthogonalEdgeStyle;rounded=0;orthogonalLoop=1;jettySize=auto;html=1;exitX=1;exitY=0.5;exitDx=0;exitDy=0;exitPerimeter=0;entryX=0;entryY=0.5;entryDx=0;entryDy=0;entryPerimeter=0;" edge="1" parent="1" source="e8C-CaGicP8ONmUUrE0p-31" target="fIfjESfUqvcu4jH1xxQw-14">
          <mxGeometry relative="1" as="geometry" />
        </mxCell>
        <mxCell id="fIfjESfUqvcu4jH1xxQw-16" value="AWS DynamoDB&lt;div&gt;(NoSQL Database)&lt;/div&gt;" style="sketch=0;points=[[0,0,0],[0.25,0,0],[0.5,0,0],[0.75,0,0],[1,0,0],[0,1,0],[0.25,1,0],[0.5,1,0],[0.75,1,0],[1,1,0],[0,0.25,0],[0,0.5,0],[0,0.75,0],[1,0.25,0],[1,0.5,0],[1,0.75,0]];outlineConnect=0;fontColor=#232F3E;fillColor=#C925D1;strokeColor=#ffffff;dashed=0;verticalLabelPosition=bottom;verticalAlign=top;align=center;html=1;fontSize=12;fontStyle=0;aspect=fixed;shape=mxgraph.aws4.resourceIcon;resIcon=mxgraph.aws4.dynamodb;" vertex="1" parent="1">
          <mxGeometry x="-49" y="2430" width="78" height="78" as="geometry" />
        </mxCell>
        <mxCell id="fIfjESfUqvcu4jH1xxQw-17" style="edgeStyle=orthogonalEdgeStyle;rounded=0;orthogonalLoop=1;jettySize=auto;html=1;exitX=1;exitY=0.25;exitDx=0;exitDy=0;exitPerimeter=0;entryX=0;entryY=0.25;entryDx=0;entryDy=0;entryPerimeter=0;" edge="1" parent="1" source="e8C-CaGicP8ONmUUrE0p-49" target="fIfjESfUqvcu4jH1xxQw-16">
          <mxGeometry relative="1" as="geometry" />
        </mxCell>
        <mxCell id="fIfjESfUqvcu4jH1xxQw-18" value="AWS SNS&lt;br&gt;(Topic)" style="sketch=0;points=[[0,0,0],[0.25,0,0],[0.5,0,0],[0.75,0,0],[1,0,0],[0,1,0],[0.25,1,0],[0.5,1,0],[0.75,1,0],[1,1,0],[0,0.25,0],[0,0.5,0],[0,0.75,0],[1,0.25,0],[1,0.5,0],[1,0.75,0]];outlineConnect=0;fontColor=#232F3E;fillColor=#E7157B;strokeColor=#ffffff;dashed=0;verticalLabelPosition=bottom;verticalAlign=top;align=center;html=1;fontSize=12;fontStyle=0;aspect=fixed;shape=mxgraph.aws4.resourceIcon;resIcon=mxgraph.aws4.sns;" vertex="1" parent="1">
          <mxGeometry x="-82" y="3010" width="78" height="78" as="geometry" />
        </mxCell>
        <mxCell id="fIfjESfUqvcu4jH1xxQw-19" value="AWS SQS" style="sketch=0;points=[[0,0,0],[0.25,0,0],[0.5,0,0],[0.75,0,0],[1,0,0],[0,1,0],[0.25,1,0],[0.5,1,0],[0.75,1,0],[1,1,0],[0,0.25,0],[0,0.5,0],[0,0.75,0],[1,0.25,0],[1,0.5,0],[1,0.75,0]];outlineConnect=0;fontColor=#232F3E;fillColor=#E7157B;strokeColor=#ffffff;dashed=0;verticalLabelPosition=bottom;verticalAlign=top;align=center;html=1;fontSize=12;fontStyle=0;aspect=fixed;shape=mxgraph.aws4.resourceIcon;resIcon=mxgraph.aws4.sqs;" vertex="1" parent="1">
          <mxGeometry x="86" y="3010" width="78" height="78" as="geometry" />
        </mxCell>
        <mxCell id="fIfjESfUqvcu4jH1xxQw-21" style="edgeStyle=orthogonalEdgeStyle;rounded=0;orthogonalLoop=1;jettySize=auto;html=1;entryX=0;entryY=0.5;entryDx=0;entryDy=0;entryPerimeter=0;" edge="1" parent="1" source="fIfjESfUqvcu4jH1xxQw-11" target="fIfjESfUqvcu4jH1xxQw-18">
          <mxGeometry relative="1" as="geometry" />
        </mxCell>
        <mxCell id="fIfjESfUqvcu4jH1xxQw-22" value="Publish (users)" style="edgeLabel;html=1;align=center;verticalAlign=middle;resizable=0;points=[];" vertex="1" connectable="0" parent="fIfjESfUqvcu4jH1xxQw-21">
          <mxGeometry x="-0.0222" y="-2" relative="1" as="geometry">
            <mxPoint y="-11" as="offset" />
          </mxGeometry>
        </mxCell>
        <mxCell id="fIfjESfUqvcu4jH1xxQw-23" style="edgeStyle=orthogonalEdgeStyle;rounded=0;orthogonalLoop=1;jettySize=auto;html=1;entryX=1;entryY=0.5;entryDx=0;entryDy=0;entryPerimeter=0;" edge="1" parent="1">
          <mxGeometry relative="1" as="geometry">
            <mxPoint x="87" y="2449" as="sourcePoint" />
            <mxPoint x="-3" y="2449" as="targetPoint" />
          </mxGeometry>
        </mxCell>
        <mxCell id="fIfjESfUqvcu4jH1xxQw-24" value="Consume" style="edgeLabel;html=1;align=center;verticalAlign=middle;resizable=0;points=[];" vertex="1" connectable="0" parent="fIfjESfUqvcu4jH1xxQw-23">
          <mxGeometry x="-0.1111" y="-1" relative="1" as="geometry">
            <mxPoint y="-8" as="offset" />
          </mxGeometry>
        </mxCell>
        <mxCell id="fIfjESfUqvcu4jH1xxQw-32" style="edgeStyle=orthogonalEdgeStyle;rounded=0;orthogonalLoop=1;jettySize=auto;html=1;" edge="1" parent="1" source="fIfjESfUqvcu4jH1xxQw-25" target="fIfjESfUqvcu4jH1xxQw-6">
          <mxGeometry relative="1" as="geometry" />
        </mxCell>
        <mxCell id="fIfjESfUqvcu4jH1xxQw-33" value="Push" style="edgeLabel;html=1;align=center;verticalAlign=middle;resizable=0;points=[];" vertex="1" connectable="0" parent="fIfjESfUqvcu4jH1xxQw-32">
          <mxGeometry y="2" relative="1" as="geometry">
            <mxPoint x="-3" y="-11" as="offset" />
          </mxGeometry>
        </mxCell>
        <mxCell id="fIfjESfUqvcu4jH1xxQw-41" style="edgeStyle=orthogonalEdgeStyle;rounded=0;orthogonalLoop=1;jettySize=auto;html=1;exitX=1;exitY=0.75;exitDx=0;exitDy=0;exitPerimeter=0;" edge="1" parent="1" source="fIfjESfUqvcu4jH1xxQw-25" target="fIfjESfUqvcu4jH1xxQw-40">
          <mxGeometry relative="1" as="geometry" />
        </mxCell>
        <mxCell id="fIfjESfUqvcu4jH1xxQw-42" value="HTTP" style="edgeLabel;html=1;align=center;verticalAlign=middle;resizable=0;points=[];" vertex="1" connectable="0" parent="fIfjESfUqvcu4jH1xxQw-41">
          <mxGeometry x="-0.1437" y="-1" relative="1" as="geometry">
            <mxPoint x="3" y="-9" as="offset" />
          </mxGeometry>
        </mxCell>
        <mxCell id="fIfjESfUqvcu4jH1xxQw-43" style="edgeStyle=orthogonalEdgeStyle;rounded=0;orthogonalLoop=1;jettySize=auto;html=1;exitX=1;exitY=0.5;exitDx=0;exitDy=0;exitPerimeter=0;entryX=1;entryY=0.5;entryDx=0;entryDy=0;entryPerimeter=0;dashed=1;" edge="1" parent="1" source="fIfjESfUqvcu4jH1xxQw-25" target="fIfjESfUqvcu4jH1xxQw-29">
          <mxGeometry relative="1" as="geometry">
            <Array as="points">
              <mxPoint x="230" y="3239" />
              <mxPoint x="230" y="2899" />
            </Array>
          </mxGeometry>
        </mxCell>
        <mxCell id="fIfjESfUqvcu4jH1xxQw-44" value="Query fallback" style="edgeLabel;html=1;align=center;verticalAlign=middle;resizable=0;points=[];" vertex="1" connectable="0" parent="fIfjESfUqvcu4jH1xxQw-43">
          <mxGeometry x="0.6144" y="-2" relative="1" as="geometry">
            <mxPoint y="-7" as="offset" />
          </mxGeometry>
        </mxCell>
        <mxCell id="fIfjESfUqvcu4jH1xxQw-25" value="AWS Lambda&lt;br&gt;(Function/Usecase)&lt;br&gt;Send Notification" style="sketch=0;points=[[0,0,0],[0.25,0,0],[0.5,0,0],[0.75,0,0],[1,0,0],[0,1,0],[0.25,1,0],[0.5,1,0],[0.75,1,0],[1,1,0],[0,0.25,0],[0,0.5,0],[0,0.75,0],[1,0.25,0],[1,0.5,0],[1,0.75,0]];outlineConnect=0;fontColor=#232F3E;fillColor=#ED7100;strokeColor=#ffffff;dashed=0;verticalLabelPosition=bottom;verticalAlign=top;align=center;html=1;fontSize=12;fontStyle=0;aspect=fixed;shape=mxgraph.aws4.resourceIcon;resIcon=mxgraph.aws4.lambda;" vertex="1" parent="1">
          <mxGeometry x="88" y="3200" width="78" height="78" as="geometry" />
        </mxCell>
        <mxCell id="fIfjESfUqvcu4jH1xxQw-27" style="edgeStyle=orthogonalEdgeStyle;rounded=0;orthogonalLoop=1;jettySize=auto;html=1;entryX=1;entryY=0.25;entryDx=0;entryDy=0;entryPerimeter=0;" edge="1" parent="1" source="fIfjESfUqvcu4jH1xxQw-19" target="fIfjESfUqvcu4jH1xxQw-25">
          <mxGeometry relative="1" as="geometry">
            <Array as="points">
              <mxPoint x="188" y="3049" />
              <mxPoint x="188" y="3220" />
            </Array>
          </mxGeometry>
        </mxCell>
        <mxCell id="fIfjESfUqvcu4jH1xxQw-28" value="Trigger" style="edgeLabel;html=1;align=center;verticalAlign=middle;resizable=0;points=[];" vertex="1" connectable="0" parent="fIfjESfUqvcu4jH1xxQw-27">
          <mxGeometry x="0.1102" y="-1" relative="1" as="geometry">
            <mxPoint x="-4" y="-105" as="offset" />
          </mxGeometry>
        </mxCell>
        <mxCell id="fIfjESfUqvcu4jH1xxQw-29" value="AWS DynamoDB&lt;div&gt;(NoSQL Database)&lt;/div&gt;" style="sketch=0;points=[[0,0,0],[0.25,0,0],[0.5,0,0],[0.75,0,0],[1,0,0],[0,1,0],[0.25,1,0],[0.5,1,0],[0.75,1,0],[1,1,0],[0,0.25,0],[0,0.5,0],[0,0.75,0],[1,0.25,0],[1,0.5,0],[1,0.75,0]];outlineConnect=0;fontColor=#232F3E;fillColor=#C925D1;strokeColor=#ffffff;dashed=0;verticalLabelPosition=bottom;verticalAlign=top;align=center;html=1;fontSize=12;fontStyle=0;aspect=fixed;shape=mxgraph.aws4.resourceIcon;resIcon=mxgraph.aws4.dynamodb;" vertex="1" parent="1">
          <mxGeometry x="-82" y="2860" width="78" height="78" as="geometry" />
        </mxCell>
        <mxCell id="fIfjESfUqvcu4jH1xxQw-30" style="edgeStyle=orthogonalEdgeStyle;rounded=0;orthogonalLoop=1;jettySize=auto;html=1;entryX=0;entryY=0.5;entryDx=0;entryDy=0;entryPerimeter=0;" edge="1" parent="1" source="fIfjESfUqvcu4jH1xxQw-11" target="fIfjESfUqvcu4jH1xxQw-29">
          <mxGeometry relative="1" as="geometry">
            <Array as="points">
              <mxPoint x="-211" y="2899" />
            </Array>
          </mxGeometry>
        </mxCell>
        <mxCell id="fIfjESfUqvcu4jH1xxQw-31" value="Query users optOut = false" style="edgeLabel;html=1;align=center;verticalAlign=middle;resizable=0;points=[];" vertex="1" connectable="0" parent="fIfjESfUqvcu4jH1xxQw-30">
          <mxGeometry x="0.2333" y="2" relative="1" as="geometry">
            <mxPoint x="2" y="-7" as="offset" />
          </mxGeometry>
        </mxCell>
        <mxCell id="fIfjESfUqvcu4jH1xxQw-34" value="" style="rounded=1;whiteSpace=wrap;html=1;fillColor=#E6E6E6;gradientColor=none;fillStyle=auto;opacity=50;" vertex="1" parent="1">
          <mxGeometry x="-135" y="2980" width="378" height="390" as="geometry" />
        </mxCell>
        <mxCell id="fIfjESfUqvcu4jH1xxQw-35" value="Scale to millions of users to receive notifications at the earliest scheduled time" style="text;html=1;align=center;verticalAlign=middle;whiteSpace=wrap;rounded=0;" vertex="1" parent="1">
          <mxGeometry x="-127" y="3335" width="360" height="30" as="geometry" />
        </mxCell>
        <mxCell id="fIfjESfUqvcu4jH1xxQw-37" value="AWS" style="text;html=1;align=center;verticalAlign=middle;whiteSpace=wrap;rounded=0;fontStyle=1;fontColor=#ffa302;" vertex="1" parent="1">
          <mxGeometry x="-483" y="2854" width="60" height="30" as="geometry" />
        </mxCell>
        <mxCell id="fIfjESfUqvcu4jH1xxQw-40" value="CPTEC" style="sketch=0;outlineConnect=0;fontColor=#232F3E;gradientColor=none;fillColor=#E7157B;strokeColor=none;dashed=0;verticalLabelPosition=bottom;verticalAlign=top;align=center;html=1;fontSize=12;fontStyle=0;aspect=fixed;pointerEvents=1;shape=mxgraph.aws4.endpoint;" vertex="1" parent="1">
          <mxGeometry x="336" y="3220" width="78" height="78" as="geometry" />
        </mxCell>
      </root>
    </mxGraphModel>
  </diagram>
</mxfile>
